P3
24 13
255
220 235 255
220 235 255
220 235 255
220 235 255
220 235 255
220 235 255
220 235 255
220 235 255
220 235 255
220 235 255
220 235 255
220 235 255
220 235 255
220 235 255
220 235 255
220 235 255
220 235 255
220 235 255
220 235 255
220 235 255
220 235 255
220 235 255
220 235 255
220 235 255
221 235 255
221 235 255
221 235 255
221 235 255
221 235 255
221 235 255
221 235 255
221 235 255
221 235 255
221 235 255
213 225 244
221 235 255
221 235 255
221 235 255
221 235 255
221 235 255
221 235 255
221 235 255
221 235 255
221 235 255
221 235 255
221 235 255
221 235 255
221 235 255
222 236 255
222 236 255
222 236 255
222 236 255
222 236 255
222 236 255
222 236 255
222 236 255
142 133 130
131 118 109
143 159 184
130 143 163
120 146 153
188 199 214
160 170 181
161 170 181
176 186 198
213 225 242
222 236 255
222 236 255
222 236 255
222 236 255
222 236 255
222 236 255
200 215 236
201 216 236
201 215 236
186 201 221
209 223 242
200 215 236
200 215 236
153 157 167
128 105 94
125 132 150
80 74 98
117 132 152
159 165 171
158 169 181
155 167 181
154 167 181
159 169 181
173 180 189
205 215 228
194 208 228
192 208 228
208 222 242
202 216 236
216 230 249
128 153 165
135 155 181
109 132 154
102 109 132
124 146 171
176 180 198
89 112 123
101 112 119
119 112 113
143 159 173
153 173 193
173 189 196
174 176 181
170 175 181
163 171 181
163 171 181
166 173 181
172 176 181
178 179 181
91 99 126
133 153 181
138 166 169
105 101 116
118 157 163
149 150 184
72 77 110
86 114 99
42 86 87
77 106 141
125 163 139
84 98 85
56 102 76
93 77 109
204 222 247
213 231 255
139 145 151
159 158 148
167 168 167
160 163 165
165 169 168
158 159 161
175 173 173
144 144 146
62 74 129
53 106 51
82 129 161
84 85 127
107 134 152
95 121 137
64 97 151
139 162 174
110 128 138
126 134 167
110 77 103
35 31 66
106 111 142
97 94 132
126 133 189
182 203 235
140 167 179
88 98 99
80 82 91
111 111 120
78 78 92
93 98 107
109 110 116
105 103 104
78 81 91
90 98 107
117 110 136
113 92 154
104 100 139
46 82 76
104 87 101
135 143 170
84 170 156
85 170 157
71 72 178
128 141 162
137 140 163
109 97 115
122 137 166
30 43 165
99 139 163
111 117 124
101 101 110
103 101 113
64 94 87
84 79 88
98 104 111
105 43 50
132 147 219
132 147 212
49 67 69
42 92 84
101 105 137
112 115 134
122 63 41
116 123 143
114 143 164
64 94 124
36 48 172
64 82 149
85 79 100
120 173 152
121 156 159
125 141 166
123 140 168
116 126 141
95 29 98
84 53 80
63 153 131
74 111 134
87 33 118
112 88 115
92 99 145
134 132 161
136 76 76
115 103 115
87 102 124
85 46 72
98 84 98
144 150 151
144 143 128
123 137 161
124 143 175
68 92 161
76 97 147
93 119 117
128 101 70
115 94 86
111 122 144
122 140 174
90 63 113
60 57 70
36 35 7
71 53 110
89 37 133
109 109 134
134 152 176
133 145 183
112 106 122
129 138 158
131 148 171
100 111 129
135 150 172
138 130 100
131 112 3
120 138 161
107 97 115
79 10 13
99 112 137
127 140 160
96 95 102
83 100 102
105 147 166
133 160 218
127 157 211
123 140 161
56 59 57
99 112 128
125 141 163
121 135 159
111 100 191
89 38 200
110 81 205
128 162 149
116 177 100
129 148 182
95 112 168
110 135 176
103 128 166
120 130 140
101 99 114
70 23 31
120 123 140
120 141 165
126 153 178
56 128 131
32 122 126
95 116 145
100 119 151
111 126 145
104 120 140
107 123 145
107 120 159
135 155 181
87 89 133
86 62 154
90 102 129
116 149 137
81 134 60
78 96 181
17 48 165
53 71 124
75 95 123
133 150 171
106 87 114
120 130 155
130 146 166
129 151 175
125 146 173
87 122 135
24 97 98
107 129 146
118 138 160
114 142 162
128 147 173
91 134 114
101 144 121
114 137 161
75 80 116
54 48 88
103 121 134
94 126 122
110 147 125
